<?xml version="1.0" standalone="no"?><!DOCTYPE svg PUBLIC "-//W3C//DTD SVG 1.1//EN" "http://www.w3.org/Graphics/SVG/1.1/DTD/svg11.dtd"><svg t="1610099706146" class="icon" viewBox="0 0 1024 1024" version="1.1" xmlns="http://www.w3.org/2000/svg" p-id="13126" xmlns:xlink="http://www.w3.org/1999/xlink" width="200" height="200"><defs><style type="text/css"></style></defs><path d="M511.4 423.6c-22 0-40.4 7.6-55.1 22.9-14.8 15.3-22.1 33.9-22.1 55.8s7.6 40.5 22.8 55.6c15.2 15.2 33.5 22.8 55 22.8s39.8-7.4 54.9-22.3c15.1-14.8 22.6-33.6 22.6-56.3 0-22-7.6-40.6-22.9-55.8-15.3-15.2-33.7-22.7-55.2-22.7z m0.1-342.6C272.6 81 79 274.6 79 513.5S272.6 946 511.5 946 944 752.4 944 513.5 750.4 81 511.5 81zM376.3 551.3c-7.4 14.1-17.5 24.7-30.2 31.8-12.7 7.2-31 10.7-54.9 10.7h-58.6V410.3h38.1c26.1 0 45.2 1.9 57.4 5.8 12.2 3.8 22.7 9.9 31.6 18.2 8.9 8.3 15.7 18.4 20.5 30.3 4.8 11.9 7.2 25.9 7.2 41.8 0 15.8-3.7 30.8-11.1 44.9z m219.6-0.8c-8.5 14.9-20.2 26.6-35.2 35.2-14.9 8.5-31.1 12.8-48.6 12.8s-33.7-4.2-48.7-12.7c-15-8.4-26.8-20.1-35.4-34.9-8.6-14.8-12.9-30.9-12.9-48.1 0-17.7 4.3-34.1 12.8-49.1s20.2-26.8 35-35.3c14.8-8.5 31-12.8 48.5-12.8s33.8 4.2 48.9 12.7c15.1 8.4 26.9 20.1 35.6 35 8.6 14.9 12.9 31.1 12.9 48.6-0.2 17.5-4.4 33.7-12.9 48.6z m83.5 8.2c15.4 14.9 34.7 22.4 57.9 22.4 25.9 0 47.5-10.1 64.7-30.2l14.3 11c-9 11.9-20.5 21-34.3 27.2-13.8 6.2-29.1 9.3-45.8 9.3-29.2 0-53-9.2-71.6-27.6-18.6-18.4-27.9-41.7-27.9-69.8 0-17.4 4.3-33.5 12.9-48.2 8.6-14.7 20.5-26.3 35.8-34.7 15.3-8.4 31.7-12.5 49.2-12.5 17.6 0 33.3 3.3 47.3 10s25.4 16.2 34.3 28.6l-14.3 11c-17.1-21.1-39-31.7-65.7-31.7-21.8 0-40.6 7.7-56.4 23-15.8 15.3-23.7 34.1-23.7 56.4 0.1 22.3 7.8 40.9 23.3 55.8zM342.9 445c-8.4-6.7-18.2-11.1-29.5-13.4-11.3-2.3-28-3.5-50-3.5h-13v148.4h21.2c22.2 0 38.2-1.1 48.2-3.3 10-2.2 18.7-6.6 26.2-13.2s13.2-14.5 17.1-23.9c3.9-9.4 5.9-20.1 5.9-32.2 0-12.1-2.3-23.3-6.8-33.5-4.5-10.3-11-18.7-19.3-25.4z" fill="#409eff" p-id="13127"></path></svg>